<svg xmlns="http://www.w3.org/2000/svg" viewBox="0 0 400 800" preserveAspectRatio="xMidYMax meet">
  <rect width="400" height="800" fill="none"/>
  <ellipse cx="200" cy="160" rx="68" ry="80" fill="#f3e2cf"/>
  <path d="M132 130 Q132 60 200 60 Q268 60 268 130 Q280 210 264 270 L256 230 L240 240 L220 230 L200 240 L180 230 L160 240 L144 230 L136 270 Q120 210 132 130 Z" fill="#1a1612"/>
  <ellipse cx="178" cy="170" rx="8" ry="12" fill="#1a1612"/>
  <ellipse cx="222" cy="170" rx="8" ry="12" fill="#1a1612"/>
  <ellipse cx="178" cy="166" rx="2" ry="3" fill="#fafafa"/>
  <ellipse cx="222" cy="166" rx="2" ry="3" fill="#fafafa"/>
  <ellipse cx="200" cy="206" rx="6" ry="8" fill="#1a1612"/>
  <path d="M150 230 L160 320 L160 540 L240 540 L240 320 L250 230 Z" fill="#fafafa"/>
  <path d="M155 540 L160 540 L240 540 L245 540 L260 720 L140 720 Z" fill="#3a4858"/>
  <rect x="160" y="240" width="80" height="20" fill="#a04030"/>
  <rect x="100" y="320" width="40" height="100" fill="#3a2f24" opacity="0.7"/>
  <text x="200" y="780" text-anchor="middle" font-family="monospace" font-size="14" fill="#5a4a36">PLACEHOLDER · ruoli/surprised</text>
</svg>
