<svg xmlns="http://www.w3.org/2000/svg" viewBox="0 0 96 80" preserveAspectRatio="xMidYMax meet">
  <ellipse cx="48" cy="48" rx="38" ry="22" fill="#4a4438"/>
  <path d="M76 48 Q86 38 90 50 Q86 60 76 56 Z" fill="#3a3428"/>
  <ellipse cx="80" cy="42" rx="3" ry="3" fill="#a04030"/>
  <path d="M86 52 L94 56 L86 58 Z" fill="#fafafa"/>
  <path d="M84 52 L92 50 L86 56 Z" fill="#fafafa"/>
  <rect x="20" y="64" width="6" height="14" fill="#1a1612"/>
  <rect x="38" y="64" width="6" height="14" fill="#1a1612"/>
  <rect x="56" y="64" width="6" height="14" fill="#1a1612"/>
  <rect x="74" y="64" width="6" height="14" fill="#1a1612"/>
  <path d="M14 38 L20 30 M22 32 L28 26 M30 30 L36 24" stroke="#2a2418" stroke-width="2" stroke-linecap="round"/>
  <text x="48" y="78" text-anchor="middle" font-family="monospace" font-size="5" fill="#fafafa" opacity="0.6">霧豕</text>
</svg>
