<svg xmlns="http://www.w3.org/2000/svg" viewBox="0 0 96 128" preserveAspectRatio="xMidYMax meet">
  <ellipse cx="48" cy="28" rx="14" ry="16" fill="#f3e2cf"/>
  <path d="M34 24 Q34 8 48 8 Q62 8 62 24 Q66 38 62 50 L58 42 L48 46 L38 42 L34 50 Q30 38 34 24 Z" fill="#1a1612"/>
  <ellipse cx="44" cy="28" rx="1.5" ry="2" fill="#1a1612"/>
  <ellipse cx="52" cy="28" rx="1.5" ry="2" fill="#1a1612"/>
  <path d="M36 46 L36 76 L60 76 L60 46 Z" fill="#fafafa"/>
  <path d="M36 76 L60 76 L66 116 L30 116 Z" fill="#3a4858"/>
  <rect x="38" y="50" width="20" height="4" fill="#a04030"/>
  <rect x="68" y="60" width="4" height="40" fill="#1a1612"/>
  <path d="M68 60 L86 50" stroke="#1a1612" stroke-width="3" fill="none" stroke-linecap="round"/>
  <text x="48" y="126" text-anchor="middle" font-family="monospace" font-size="6" fill="#5a4a36">ruoli</text>
</svg>
